<svg height="480pt" viewBox="0 -28 480.26804 480" width="480pt" xmlns="http://www.w3.org/2000/svg"><path d="m460.550781 19.851562c15.621094 15.621094 15.621094 40.949219 0 56.570313l-73.539062 73.539063c-15.621094 15.621093-40.945313 15.621093-56.566407 0l-28.285156-28.285157 101.824219-101.824219c15.621094-15.621093 40.945313-15.621093 56.566406 0zm0 0" fill="#7d4739"/><path d="m366.726562 121.671875c0 4.417969-3.582031 8-8 8-4.417968 0-8-3.582031-8-8 0-4.421875 3.582032-8 8-8 4.417969 0 8 3.578125 8 8zm0 0"/><path d="m440.261719 48.132812c0 4.417969-3.582031 8-8 8s-8-3.582031-8-8c0-4.417968 3.582031-8 8-8s8 3.582032 8 8zm0 0"/><path d="m214.207031 329.269531c-57.8125 38.542969-122.007812 66.511719-189.601562 82.609375l-16.605469 3.953125 271.527344-271.53125 67.878906 67.882813-43.761719 43.757812c-27.324219 27.328125-57.285156 51.890625-89.4375 73.328125zm0 0" fill="#c4c3c3"/><path d="m130.46875 349.277344-6.878906-14.445313c23.703125-11.292969 46.566406-24.273437 68.410156-38.84375 29.957031-19.984375 57.875-42.871093 83.351562-68.328125l21.125-21.132812 11.320313 11.3125-21.132813 21.132812c-26.21875 26.207032-54.957031 49.761719-85.792968 70.328125-22.480469 14.992188-46.007813 28.351563-70.402344 39.976563zm0 0" fill="#909091"/><path d="m302.160156 121.671875 33.941406 33.941406-22.628906 22.628907-33.941406-33.941407zm0 0" fill="#909091"/><path d="m353.0625 116.015625c-3.121094 3.125-3.121094 8.1875.003906 11.308594 3.125 3.125 8.1875 3.125 11.3125 0 3.125-3.121094 3.125-8.183594.003906-11.308594-1.5-1.503906-3.539062-2.347656-5.660156-2.347656-2.125 0-4.160156.84375-5.660156 2.347656zm0 0"/><path d="m426.605469 42.476562c-3.125 3.125-3.125 8.191407 0 11.316407s8.191406 3.125 11.3125 0c3.125-3.125 3.125-8.191407 0-11.316407-3.125-3.121093-8.1875-3.121093-11.3125 0zm0 0"/><path d="m275.367188 227.660156c-25.480469 25.457032-53.40625 48.34375-83.367188 68.328125-21.851562 14.570313-44.71875 27.550781-68.425781 38.84375l6.878906 14.445313c24.394531-11.632813 47.921875-25 70.402344-40 30.835937-20.566406 59.574219-44.121094 85.789062-70.328125l21.136719-21.136719-11.320312-11.308594zm0 0"/><path d="m432.261719.132812c-12.742188-.019531-24.964844 5.054688-33.945313 14.097657l-101.820312 101.785156-22.625 22.628906-271.527344 271.53125c-2.2890625 2.285157-2.972656 5.726563-1.734375 8.714844s4.152344 4.9375 7.390625 4.941406c.621094-.003906 1.242188-.074219 1.847656-.21875l16.597656-3.953125c68.527344-16.277344 133.609376-44.632812 192.191407-83.734375 32.59375-21.734375 62.960937-46.632812 90.664062-74.328125l43.769531-43.757812c3.121094-3.125 3.121094-8.191406 0-11.3125l-28.273437-28.296875 13.28125-13.28125c18.335937 8.800781 40.230469 5.050781 54.601563-9.34375l73.535156-73.535157c13.726562-13.730468 17.828125-34.375 10.398437-52.3125-7.433593-17.933593-24.9375-29.625-44.351562-29.625zm-130.101563 132.855469 22.636719 22.625-11.3125 11.3125-22.628906-22.625zm33.941406 79.203125-38.109374 38.101563c-26.960938 26.949219-56.511719 51.175781-88.226563 72.328125-53.835937 35.933594-113.332031 62.550781-176 78.738281l245.761719-245.746094 28.285156 28.289063zm118.785157-141.425781-73.535157 73.535156c-12.671874 12.074219-32.585937 12.074219-45.257812 0l-11.296875-11.3125-11.328125-11.316406 14.53125-14.53125 10.34375 10.34375 11.308594-11.308594-10.34375-10.34375 12.691406-12.691406 10.34375 10.34375 11.308594-11.308594-10.34375-10.34375 12.691406-12.691406 10.34375 10.34375 11.308594-11.308594-10.34375-10.34375 12.691406-12.691406 10.34375 10.34375 11.308594-11.308594-10.167969-10.167969c12.765625-10.542968 31.394531-9.902343 43.402344 1.496094 12.503906 12.496094 12.503906 32.765625 0 45.261719zm0 0"/></svg>